<svg width="93" height="92" fill="none" xmlns="http://www.w3.org/2000/svg"><rect x=".333" width="92" height="92" rx="24" fill="#fff"/><path fill-rule="evenodd" clip-rule="evenodd" d="M67.785 49.076v17.295c0 3.094-2.425 5.629-5.388 5.629H30.304c-2.964 0-5.388-2.535-5.388-5.629V49.076h16.666v7.511l4.768 3.133 4.769-3.133v-7.51h16.666z" fill="url(#paint0_linear_22728_11661)"/><path fill-rule="evenodd" clip-rule="evenodd" d="M43.252 49.076v6.609l3.098 2.035 3.098-2.035v-6.609h-6.196z" fill="url(#paint1_linear_22728_11661)"/><path fill-rule="evenodd" clip-rule="evenodd" d="M26.407 29.143h39.887c1.882 0 3.42 1.708 3.42 3.795v10.253c0 2.088-1.538 3.796-3.42 3.796H26.407c-1.882 0-3.42-1.708-3.42-3.796V32.938c0-2.087 1.538-3.795 3.42-3.795z" fill="url(#paint2_linear_22728_11661)"/><path fill-rule="evenodd" clip-rule="evenodd" d="M38.045 19.955h16.61a2.814 2.814 0 012.806 2.806v4.377h-3.558v-2.586c0-.698-.57-1.27-1.267-1.27H40.064c-.697 0-1.267.572-1.267 1.27v2.586h-3.558v-4.377a2.814 2.814 0 012.806-2.806z" fill="url(#paint3_linear_22728_11661)"/><defs><linearGradient id="paint0_linear_22728_11661" x1="46.35" y1="49.076" x2="46.35" y2="72" gradientUnits="userSpaceOnUse"><stop stop-color="#EF8080"/><stop offset="1" stop-color="#F0145A"/></linearGradient><linearGradient id="paint1_linear_22728_11661" x1="46.35" y1="49.076" x2="46.35" y2="57.72" gradientUnits="userSpaceOnUse"><stop stop-color="#EF8080"/><stop offset="1" stop-color="#F0145A"/></linearGradient><linearGradient id="paint2_linear_22728_11661" x1="46.35" y1="29.143" x2="46.35" y2="46.987" gradientUnits="userSpaceOnUse"><stop stop-color="#EF8080"/><stop offset="1" stop-color="#F0145A"/></linearGradient><linearGradient id="paint3_linear_22728_11661" x1="46.35" y1="19.955" x2="46.35" y2="27.138" gradientUnits="userSpaceOnUse"><stop stop-color="#EF8080"/><stop offset="1" stop-color="#F0145A"/></linearGradient></defs></svg>