<svg width="93" height="92" fill="none" xmlns="http://www.w3.org/2000/svg"><rect x=".667" width="92" height="92" rx="24" fill="#fff"/><path d="M55.019 34.389a1.872 1.872 0 002.65 0l2.608-2.608a1.878 1.878 0 000-2.651l-6.583-6.581a1.871 1.871 0 00-2.648 0l-2.61 2.608a1.875 1.875 0 000 2.648l6.583 6.584z" fill="url(#paint0_linear_22728_11686)"/><path d="M39.432 50.265a1.876 1.876 0 002.648 0l2.61-2.61a1.872 1.872 0 000-2.649l-6.584-6.583a1.874 1.874 0 00-2.648 0l-2.608 2.608a1.875 1.875 0 000 2.65l6.582 6.584z" fill="url(#paint1_linear_22728_11686)"/><path d="M69.315 50.891l-2.647-2.65a1.875 1.875 0 00-2.648 0l-1.161 1.16-11.205-11.207 2.427-2.428-6.733-6.73-2.428 2.427-3.092 3.09-2.374 2.374 6.732 6.733 2.377-2.373 11.203 11.205-1.048 1.05a1.87 1.87 0 000 2.647l2.647 2.648a1.87 1.87 0 002.65 0l5.299-5.297a1.871 1.871 0 000-2.649z" fill="url(#paint2_linear_22728_11686)"/><path d="M49.743 58.943a2.173 2.173 0 00-2.172-2.173H30.603c-1.2 0-2.174.973-2.174 2.172v3.527h-4.762v7.39h30.557v-7.39h-4.48v-3.526z" fill="url(#paint3_linear_22728_11686)"/><defs><linearGradient id="paint0_linear_22728_11686" x1="54.357" y1="22" x2="54.357" y2="34.939" gradientUnits="userSpaceOnUse"><stop stop-color="#EF8080"/><stop offset="1" stop-color="#F0145A"/></linearGradient><linearGradient id="paint1_linear_22728_11686" x1="38.77" y1="37.875" x2="38.77" y2="50.812" gradientUnits="userSpaceOnUse"><stop stop-color="#EF8080"/><stop offset="1" stop-color="#F0145A"/></linearGradient><linearGradient id="paint2_linear_22728_11686" x1="54.659" y1="29.035" x2="54.659" y2="59.388" gradientUnits="userSpaceOnUse"><stop stop-color="#EF8080"/><stop offset="1" stop-color="#F0145A"/></linearGradient><linearGradient id="paint3_linear_22728_11686" x1="38.946" y1="56.77" x2="38.946" y2="69.859" gradientUnits="userSpaceOnUse"><stop stop-color="#EF8080"/><stop offset="1" stop-color="#F0145A"/></linearGradient></defs></svg>